<svg xmlns="http://www.w3.org/2000/svg" xmlns:xlink="http://www.w3.org/1999/xlink" version="1.1" x="0px" y="0px" viewBox="0 0 32 40" enable-background="new 0 0 32 32" xml:space="preserve"><g display="none"><rect x="-229.667" y="-68" display="inline" fill="#000000" width="542" height="232"/></g><g display="none"><path display="inline" fill="#000000" stroke="#1A1718" stroke-miterlimit="10" d="M15.099,12.662v-0.269h-1.273   c0,0-0.092-2.954,2.385-2.954c0,0,1.013-0.081,1.267,0.602c0.255,0.684,0.237,1.302,0.237,1.302H17.16v1.318"/><path display="inline" fill="#000000" stroke="#1A1718" stroke-miterlimit="10" d="M17.975,15.14c0,0,0.11,1.271-0.657,3.235   s-0.493,3.004-0.493,3.004s2.082-2.715,3.451-2.715S19.18,23.92,19.18,23.92s3.013,0.289,3.013,2.08H10.47   c0,0,1.222-1.14,2.465-1.348c1.152-0.193,1.753,0,1.753,0s-2.027-0.5-1.096-3.678s-0.219-5.488-0.219-5.488   s-1.096,1.213-1.041,2.831c0.055,1.618,0.383,3.429,0.329,4.122c-0.055,0.693-1.041,1.665-1.041,1.665   c-0.595-4.089-0.591-3.689-0.993-6.373c-0.493-3.293,2.636-4.613,4.608-4.613s4.93,0,4.93,0s-0.032-0.466-0.519-2.659   c-0.418-1.881,0.234-3.927,0.234-3.927s0.822-1.271,0.712,0.116s-0.373,3.697,0.449,5.141s0.712,3.235,0.712,3.235L17.975,15.14z"/><path display="inline" fill="#000000" stroke="#1A1718" stroke-miterlimit="10" d="M11.022,6h9.73c0,0-1.606,3.315-4.75,3.315   S11.022,6,11.022,6z"/><g display="inline"><path fill="#000000" d="M16,1c8.271,0,15,6.729,15,15s-6.729,15-15,15S1,24.271,1,16S7.729,1,16,1 M16,0C7.163,0,0,7.163,0,16    s7.163,16,16,16s16-7.163,16-16S24.837,0,16,0L16,0z"/></g></g><g><g><path d="M17.16,12.662v-1.318h0.556c0,0,0.017-0.618-0.237-1.302c-0.255-0.684-1.267-0.602-1.267-0.602    c-2.476,0-2.385,2.954-2.385,2.954h1.273v0.269H17.16z"/><path d="M12.935,24.652C11.693,24.86,10.47,26,10.47,26h11.723c0-1.791-3.013-2.08-3.013-2.08s2.465-5.257,1.096-5.257    s-3.451,2.715-3.451,2.715s-0.274-1.04,0.493-3.004c0.767-1.964,0.657-3.235,0.657-3.235l3.78-0.116c0,0,0.11-1.791-0.712-3.235    s-0.559-3.755-0.449-5.141c0.012-0.154,0.011-0.271,0.003-0.365C20.698,6.109,20.752,6,20.752,6h-9.73    c0,0,1.837,3.315,4.981,3.315c1.637,0,2.853-0.898,3.646-1.76c-0.134,0.768-0.235,1.855-0.002,2.904    c0.488,2.193,0.519,2.659,0.519,2.659s-2.958,0-4.93,0s-5.101,1.32-4.608,4.613c0.402,2.685,0.398,2.284,0.993,6.373    c0,0,0.986-0.972,1.041-1.665c0.055-0.693-0.274-2.505-0.329-4.122c-0.055-1.618,1.041-2.831,1.041-2.831s1.15,2.311,0.219,5.488    c-0.931,3.177,1.096,3.678,1.096,3.678S14.088,24.459,12.935,24.652z"/><path d="M16,32c8.837,0,16-7.163,16-16S24.837,0,16,0S0,7.163,0,16S7.163,32,16,32z M16,2c7.72,0,14,6.28,14,14    c0,7.72-6.28,14-14,14C8.28,30,2,23.72,2,16C2,8.28,8.28,2,16,2z"/></g></g><g display="none"><g display="inline"><g><path fill="#000000" d="M19.181,7.319c0.071-0.376,0.145-0.668,0.189-0.819h-7.399c0.708,0.905,2.118,2.314,4.031,2.314     C17.395,8.814,18.458,8.07,19.181,7.319z"/></g><g><path fill="#000000" d="M15.6,12.618h1.061v-1.774h0.513c-0.03-0.184-0.08-0.401-0.164-0.627     c-0.112-0.305-0.753-0.281-0.758-0.279c-0.562,0.002-0.963,0.154-1.269,0.468c-0.413,0.424-0.566,1.055-0.623,1.488h1.24V12.618z     "/></g><g><path fill="#000000" d="M12.854,24.159c0.142-0.023,0.275-0.042,0.402-0.056c-0.01-0.016-0.019-0.031-0.028-0.047     c-0.144-0.252-0.247-0.529-0.31-0.832c-0.274,0.522-0.705,0.99-0.89,1.179C12.293,24.294,12.571,24.206,12.854,24.159z"/></g><g><path fill="#000000" d="M17.726,9.501c0.088,0.106,0.167,0.223,0.221,0.367c0.285,0.765,0.271,1.46,0.27,1.489l-0.014,0.486     H17.66v0.774h1.923c-0.069-0.387-0.195-1.025-0.424-2.051c-0.134-0.602-0.161-1.209-0.141-1.774     C18.637,9.071,18.208,9.32,17.726,9.501z"/></g><g><path fill="#000000" d="M13.07,20.986c0.014-0.051,0.027-0.102,0.043-0.152c0.526-1.798,0.341-3.309,0.116-4.215     c-0.219,0.438-0.419,1.025-0.396,1.68c0.026,0.779,0.118,1.608,0.198,2.34C13.045,20.759,13.058,20.874,13.07,20.986z"/></g><g><path fill="#000000" d="M16,0C7.163,0,0,7.163,0,16s7.163,16,16,16s16-7.163,16-16S24.837,0,16,0z M22.693,26.5H9.201     l0.928-0.865c0.031-0.029,0.466-0.432,1.09-0.813l-0.094-0.645c-0.345-2.378-0.487-3.234-0.626-4.064     c-0.1-0.599-0.197-1.184-0.365-2.308c-0.195-1.303,0.116-2.473,0.901-3.384c0.672-0.781,1.581-1.26,2.464-1.527h-0.157     l-0.016-0.484c-0.002-0.068-0.041-1.69,0.936-2.697c0.057-0.058,0.123-0.102,0.183-0.154c-2.426-0.792-3.793-3.194-3.861-3.316     L10.173,5.5H21.55l-0.348,0.718c-0.008,0.018-0.042,0.085-0.097,0.185c0,0.11-0.007,0.21-0.013,0.284l-0.025,0.312     c-0.109,1.329-0.276,3.337,0.411,4.544c0.885,1.556,0.781,3.434,0.776,3.513l-0.027,0.456l-3.756,0.114     c-0.032,0.582-0.173,1.613-0.688,2.932c-0.218,0.558-0.345,1.033-0.417,1.423c0.795-0.839,1.933-1.816,2.909-1.816     c0.312,0,0.573,0.141,0.735,0.396c0.56,0.881-0.427,3.446-1.105,4.977c1.011,0.222,2.788,0.842,2.788,2.465V26.5z"/></g><g><path fill="#000000" d="M19.132,24.418l-0.703-0.069l0.299-0.641c0.914-1.949,1.564-3.987,1.461-4.539     c-0.794,0.101-2.194,1.506-2.968,2.515l-0.62,0.81l-0.26-0.987c-0.032-0.122-0.292-1.257,0.511-3.312     c0.708-1.813,0.626-3.001,0.625-3.013l-0.041-0.522l3.817-0.119c-0.025-0.584-0.146-1.626-0.645-2.503     c-0.073-0.129-0.14-0.264-0.198-0.403c0.226,1.104,0.252,1.412,0.255,1.452l0.035,0.533h-5.464c-1.09,0-2.578,0.45-3.444,1.455     c-0.597,0.693-0.822,1.562-0.67,2.583c0.168,1.116,0.265,1.697,0.363,2.291c0.115,0.688,0.232,1.394,0.464,2.956     c0.119-0.19,0.203-0.371,0.214-0.503c0.023-0.305-0.049-0.959-0.125-1.651c-0.083-0.75-0.177-1.599-0.205-2.416     c-0.062-1.798,1.119-3.126,1.169-3.182l0.492-0.545l0.326,0.657c0.051,0.102,1.227,2.524,0.252,5.852     c-0.302,1.029-0.298,1.867,0.012,2.424c0.255,0.457,0.643,0.602,0.719,0.626c0.019,0.005,0.031,0.009,0.039,0.012l-0.273,0.961     c-0.009-0.002-0.024-0.006-0.046-0.013c-0.084-0.021-0.601-0.132-1.504,0.021c-0.333,0.056-0.669,0.191-0.976,0.354h9.507     C21.013,24.629,19.154,24.42,19.132,24.418z"/></g></g></g><g display="none"><path display="inline" fill="#000000" stroke="#1A1718" stroke-width="0.5" stroke-miterlimit="10" d="M15.099,13.034v-0.64h-1.273   c0,0-0.092-2.954,2.385-2.954c0,0,1.013-0.081,1.267,0.602c0.255,0.684,0.237,1.302,0.237,1.302H17.16v1.69"/><path display="inline" fill="#000000" stroke="#1A1718" stroke-width="0.5" stroke-miterlimit="10" d="M17.975,15.14   c0,0,0.11,1.271-0.657,3.235s-0.493,3.004-0.493,3.004s2.082-2.715,3.451-2.715S19.18,23.92,19.18,23.92s3.013,0.289,3.013,2.08   H10.47c0,0,1.222-1.14,2.465-1.348c1.152-0.193,1.753,0,1.753,0s-2.027-0.5-1.096-3.678s-0.219-5.488-0.219-5.488   s-1.096,1.213-1.041,2.831c0.055,1.618,0.383,3.429,0.329,4.122c-0.055,0.693-1.041,1.665-1.041,1.665   c-0.253-4.609-0.31-3.969-0.712-6.654c-0.493-3.293,2.356-4.333,4.328-4.333s4.93,0,4.93,0s-0.032-0.466-0.519-2.659   c-0.418-1.881,0.861-3.915,0.861-3.915s0.83-1.296,0.72,0.091s-1.008,3.71-0.186,5.155s0.712,3.235,0.712,3.235L17.975,15.14z"/><path display="inline" fill="#000000" stroke="#1A1718" stroke-width="0.5" stroke-miterlimit="10" d="M11.022,6h9.73   c0,0-1.606,3.315-4.75,3.315S11.022,6,11.022,6z"/><g display="inline"><path fill="#000000" d="M16,0.5c8.547,0,15.5,6.953,15.5,15.5S24.547,31.5,16,31.5S0.5,24.547,0.5,16S7.453,0.5,16,0.5 M16,0    C7.163,0,0,7.163,0,16s7.163,16,16,16s16-7.163,16-16S24.837,0,16,0L16,0z"/></g></g><g display="none"><path display="inline" d="M6.138,32.043h19.725c0-2.865-5.069-3.327-5.069-3.327s4.148-8.411,1.843-8.411   c-2.304,0-5.807,4.344-5.807,4.344s-0.461-1.664,0.83-4.806c1.29-3.143,1.106-5.176,1.106-5.176l6.36-0.185   c0,0,0.184-2.865-1.198-5.176s-1.659-6.008-1.475-8.226c0.053-0.634-0.025-0.914-0.159-1c0.004-0.015,0.01-0.036,0.01-0.036H7.328   c0,0,3.075,5.272,8.337,5.301c-0.052,0.002-0.085,0.004-0.085,0.004c-5.007,0-4.822,5.68-4.822,5.68h2.575v0.44   c-3.228,0.256-7.221,2.048-6.458,6.895c0.676,4.296,0.772,3.272,1.198,10.646c0,0,1.659-1.555,1.751-2.664   c0.092-1.109-0.461-4.008-0.553-6.596c-0.092-2.588,1.751-4.529,1.751-4.529s1.936,3.697,0.369,8.781   c-1.567,5.084,1.843,6.008,1.843,6.008s-0.83,0-2.95,0S6.138,32.043,6.138,32.043z M20.929,2.768   c-0.139,1.323-0.144,3.127,0.509,4.688c1.198,2.865,1.014,3.974,1.014,3.974s-2.384,0-4.952,0V9.01h1.123   c0,0,0.035-1.189-0.48-2.504c-0.428-1.093-1.901-1.167-2.391-1.162C18.321,5.329,19.942,4.062,20.929,2.768z"/></g><text x="0" y="47" fill="#000000" font-size="5px" font-weight="bold" font-family="'Helvetica Neue', Helvetica, Arial-Unicode, Arial, Sans-serif">Created by AlfredoCreates.com</text><text x="0" y="52" fill="#000000" font-size="5px" font-weight="bold" font-family="'Helvetica Neue', Helvetica, Arial-Unicode, Arial, Sans-serif">from the Noun Project</text></svg>